<?xml version="1.0" encoding="utf-8"?>
<!-- Generator: Adobe Illustrator 20.1.0, SVG Export Plug-In . SVG Version: 6.00 Build 0)  -->
<svg version="1.1" id="icon" xmlns="http://www.w3.org/2000/svg" xmlns:xlink="http://www.w3.org/1999/xlink" x="0px" y="0px"
	 viewBox="0 0 44 44" style="enable-background:new 0 0 44 44;" xml:space="preserve">
<style type="text/css">
	.st0{fill:#C5DADC;fill-opacity:0;stroke:#E21F2F;stroke-width:2;stroke-linejoin:round;}
	.st1{enable-background:new    ;}
	.st2{fill:#FFFFFF;}
</style>
<circle class="st0" cx="22" cy="22" r="4"/>
<g class="st1">
	<path class="st2" d="M26.2,22.8c0,0.2-0.1,0.4-0.2,0.5l-3.6,3.6c-0.1,0.1-0.3,0.2-0.5,0.2c-0.2,0-0.4-0.1-0.5-0.2l-0.4-0.4
		c-0.1-0.1-0.2-0.3-0.2-0.5s0.1-0.4,0.2-0.5l1.6-1.6h-3.9c-0.2,0-0.4-0.1-0.5-0.2c-0.1-0.1-0.2-0.3-0.2-0.5v-0.7
		c0-0.2,0.1-0.4,0.2-0.5c0.1-0.1,0.3-0.2,0.5-0.2h3.9l-1.6-1.6c-0.1-0.1-0.2-0.3-0.2-0.5s0.1-0.4,0.2-0.5l0.4-0.4
		c0.1-0.1,0.3-0.2,0.5-0.2c0.2,0,0.4,0.1,0.5,0.2l3.6,3.6C26.1,22.4,26.2,22.6,26.2,22.8z"/>
</g>
</svg>
